<svg width="237" height="92" viewBox="0 0 237 92" fill="none" xmlns="http://www.w3.org/2000/svg">
<path d="M182.559 60.5947C185.176 60.5947 186.841 59.01 186.841 56.3206C186.841 53.6311 185.176 52.0464 182.559 52.0464C179.943 52.0464 178.278 53.6311 178.278 56.3206C178.278 59.01 179.943 60.5947 182.559 60.5947ZM205.156 34.0854H208.011V39.8483H203.729C199.923 39.8483 198.639 41.625 198.639 44.5065V60.0184H192.645V34.0373H198.354V38.8396C199.495 35.526 201.779 34.0854 205.156 34.0854ZM94.7395 47.0999C94.7395 52.6227 96.7374 55.264 101.97 55.264C107.204 55.264 109.201 52.6227 109.201 47.0999V46.9558C109.201 41.433 107.204 38.8396 101.97 38.8396C96.7374 38.8396 94.7395 41.433 94.7395 46.9558V47.0999ZM101.97 60.5947C93.7879 60.5947 88.65 55.456 88.65 47.0518C88.65 38.6476 93.7879 33.5091 101.97 33.5091C110.153 33.5091 115.291 38.6476 115.291 47.0518C115.291 55.456 110.153 60.5947 101.97 60.5947ZM78.8501 60.0184H84.8444V24.0002H78.8501V60.0184ZM172.521 24.0002V60.0184H166.813V56.1764C165.195 58.7699 162.721 60.5947 158.487 60.5947C150.4 60.5947 146.356 54.9278 146.356 47.4361C146.356 39.2239 150.4 33.557 158.487 33.557C162.008 33.557 165.385 35.2858 166.527 37.591V24.0002H172.521ZM159.582 55.264C164.719 55.264 166.718 52.6227 166.718 47.0999V46.9558C166.718 41.433 164.719 38.8877 159.582 38.8877C154.444 38.8877 152.445 41.433 152.445 46.9558V47.0999C152.445 52.6227 154.444 55.264 159.582 55.264ZM217.002 49.5011C217.002 53.3431 218.905 55.264 222.711 55.264C226.517 55.264 228.42 53.3431 228.42 49.5011V34.0854H234.414V60.0184H228.8V56.1764C227.23 58.914 224.661 60.5947 220.38 60.5947C214.291 60.5947 211.008 57.233 211.008 50.5095V34.0854H217.002V49.5011ZM125.043 49.5011C125.043 53.3431 126.946 55.264 130.752 55.264C134.558 55.264 136.461 53.3431 136.461 49.5011V34.0854H142.455V60.0184H136.842V56.1764C135.272 58.914 132.703 60.5947 128.421 60.5947C122.332 60.5947 119.049 57.233 119.049 50.5095V34.0854H125.043V49.5011ZM65.1014 33.5091C56.5383 33.5091 51.9236 38.4074 51.9236 47.0518C51.9236 55.6961 56.5383 60.5947 64.8635 60.5947C70.3344 60.5947 74.7585 57.8093 76.5189 52.1424H70.8101C69.7158 54.0636 68.146 55.264 64.8635 55.264C59.9635 55.264 58.013 52.6227 58.013 47.0999V46.9558C58.013 41.433 59.9635 38.8396 65.1014 38.8396C68.146 38.8396 69.7158 39.8961 70.8101 41.721H76.5189C74.7585 36.2464 70.5722 33.5091 65.1014 33.5091Z" fill="#222222"/>
<path d="M21.0834 48.5689H39.2866V60.2642L21.08 67.9964V48.5656L21.0834 48.5689ZM39.2866 45.861V34.1657L21.0834 26.4302V45.8509L39.2866 45.861ZM0 34.1657V60.2676L18.2065 67.9997V26.4302L0 34.1657Z" fill="#26D07C"/>
</svg>
