<svg width="196" height="92" viewBox="0 0 196 92" fill="none" xmlns="http://www.w3.org/2000/svg">
<path d="M179.224 55.5711L172.483 66.24H164.408L174.953 49.7971L164.809 34.672H173.752L180.158 44.2115L185.897 34.672H193.839L184.363 49.9855L195.307 66.24H186.365L179.224 55.5711ZM143.453 47.6003H154.532V46.973C154.532 43.019 153.331 39.9437 149.393 39.9437C145.589 39.9437 143.654 42.5797 143.453 47.6003ZM151.128 66.8676C140.984 66.8676 135.245 61.5332 135.245 50.5502C135.245 41.0109 139.85 34.0443 149.526 34.0443C157.468 34.0443 162.606 38.1865 162.606 49.1695V53.1235H143.453C143.787 58.3952 145.99 60.9682 151.795 60.9682C155.666 60.9682 159.804 59.5875 162.273 58.0187V64.1065C159.937 65.6123 156.2 66.8676 151.128 66.8676ZM109.018 50.6759C109.018 57.8303 111.154 60.9682 115.491 60.9682C119.962 60.9682 122.232 57.7676 122.232 50.4247C122.232 43.1446 120.096 39.9437 115.825 39.9437C111.287 39.9437 109.018 43.2074 109.018 50.6759ZM100.81 50.6759C100.81 40.1321 106.148 34.0443 113.823 34.0443C117.293 34.0443 120.23 35.5507 122.232 38.3749V22.6221H130.173V66.24H122.832L122.432 62.1608C120.296 65.2361 117.226 66.8676 113.489 66.8676C106.015 66.8676 100.81 61.0939 100.81 50.6759ZM76.7848 66.24H68.8431V34.672H76.5845L76.7848 37.308H77.1849C78.7869 35.8018 81.5895 34.17 86.3279 34.17C92.801 34.17 95.4706 36.9314 95.4706 43.2074V66.24H87.5291V43.9604C87.5291 41.5755 86.2611 40.4459 83.4582 40.4459C80.5886 40.4459 78.2529 41.8893 76.7848 43.5839V66.24ZM54.4282 51.4916H53.2938C46.4865 51.4916 43.7507 52.8096 43.7507 56.5123C43.7507 59.3367 45.4188 61.2193 48.7557 61.2193C51.5586 61.2193 53.4271 60.0895 54.4282 58.709V51.4916ZM62.3697 58.5206C62.3697 61.0939 62.5033 63.6672 62.7701 66.24H55.0287C54.7619 65.6123 54.495 64.5457 54.4282 63.7299H54.0946C52.5595 65.2361 50.5574 66.6795 45.886 66.6795C39.7463 66.6795 35.6089 63.1023 35.6089 56.7007C35.6089 50.2991 41.0143 46.5337 53.1602 46.5337H54.4282V44.7762C54.4282 41.3871 52.693 40.1321 48.8893 40.1321C44.8184 40.1321 40.147 41.7639 38.0111 43.2701V37.0569C40.4138 35.7388 44.5512 34.17 49.8234 34.17C58.2323 34.17 62.3697 37.0569 62.3697 44.7135V58.5206Z" fill="black"/>
<path d="M16.055 61.8467V66.24H23.8632V60.9055C23.8632 53.6881 22.5284 50.4248 19.4587 44.1486L8.98117 22.6221H0.438965L12.7849 47.7887C15.321 52.9351 16.055 55.8846 16.055 61.8467Z" fill="#FC3F1D"/>
<path d="M30.8037 22.6222L21.0603 43.7095L29.1355 43.7095L39.0121 22.6223L30.8037 22.6222Z" fill="#FC3F1D"/>
</svg>
